<?xml version="1.0" encoding="UTF-8" standalone="no"?> <svg width="64" height="64" viewBox="0 0 64 64" fill="none" xmlns="http://www.w3.org/2000/svg">
<path d="M31 18H37C37.7956 18 38.5587 18.3161 39.1213 18.8787C39.6839 19.4413 40 20.2044 40 21V37H28V21C28 20.2044 28.3161 19.4413 28.8787 18.8787C29.4413 18.3161 30.2044 18 31 18V18Z" fill="#57B7EB"/>
<path d="M32.05 18H31C30.2044 18 29.4413 18.3161 28.8787 18.8787C28.3161 19.4413 28 20.2044 28 21V37H40V28.3C37.8244 27.53 35.9171 26.1487 34.5069 24.3217C33.0968 22.4947 32.2437 20.2997 32.05 18V18Z" fill="#4891D3"/>
<path d="M37 14H31V18H37V14Z" fill="#F9E109"/>
<path d="M36 10H32V14H36V10Z" fill="#F9E109"/>
<path d="M40 23H28V27H40V23Z" fill="#F9E109"/>
<path d="M33.618 23H28V27H37.372C35.8299 25.9729 34.5453 24.6041 33.618 23V23Z" fill="#FCBC04"/>
<path d="M35 16C34.3814 15.9989 33.7784 15.8059 33.274 15.4477C32.7697 15.0895 32.3888 14.5837 32.184 14H31V18H37V16H35Z" fill="#FCBC04"/>
<path d="M33 10H32V14H36V13C35.2044 13 34.4413 12.6839 33.8787 12.1213C33.3161 11.5587 33 10.7956 33 10Z" fill="#FCBC04"/>
<path d="M56.9996 3.2688C57.459 3.53402 57.7942 3.97085 57.9315 4.48321C58.0688 4.99557 57.9969 5.54148 57.7317 6.00085L33.2317 48.4361L29.7676 46.4361L54.2676 4.00085C54.5328 3.54148 54.9696 3.20628 55.482 3.069C55.9943 2.93171 56.5403 3.00358 56.9996 3.2688V3.2688Z" fill="#F9E109"/>
<path d="M57.24 3.44092L44.232 25.9709C43.8527 26.6257 43.2949 27.1591 42.6238 27.5088C41.9527 27.8585 41.196 28.0101 40.442 27.9459L29.768 46.4359L33.232 48.4359L57.732 5.99992C57.9706 5.58529 58.0522 5.0987 57.9619 4.62893C57.8715 4.15916 57.6153 3.73751 57.24 3.44092V3.44092Z" fill="#FCBC04"/>
<path d="M18.6602 17.928L13.4641 20.928L16.4641 26.1241L21.6602 23.1241L18.6602 17.928Z" fill="#E9F1F2"/>
<path d="M20.062 20.624C19.7206 20.8212 19.3437 20.9492 18.9528 21.0007C18.5619 21.0521 18.1648 21.026 17.784 20.9238C17.4032 20.8217 17.0463 20.6455 16.7337 20.4053C16.421 20.1651 16.1588 19.8656 15.962 19.524L15.944 19.493L13.462 20.926L16.462 26.126L21.662 23.126L20.18 20.559L20.062 20.624Z" fill="#D0D8DA"/>
<path d="M34.124 36.713L22 43.713L14.849 27.867C14.543 27.1889 14.4998 26.4214 14.7278 25.7133C14.9558 25.0052 15.4388 24.407 16.083 24.035L20.041 21.75C20.6853 21.378 21.4448 21.2587 22.1722 21.4152C22.8995 21.5717 23.5427 21.9929 23.977 22.597L34.124 36.713Z" fill="#F9E109"/>
<path d="M6 16L8 19.464C8.91872 18.9336 10.0105 18.7899 11.0352 19.0644C12.0599 19.339 12.9336 20.0093 13.464 20.928V20.928L18.664 17.928L16.664 14.464L18.396 13.464L16.396 10L6 16Z" fill="#84D2F4"/>
<path d="M19.8559 8.00012L16.3918 10.0001L18.3918 13.4642L21.8559 11.4642L19.8559 8.00012Z" fill="#F9E109"/>
<path d="M26.718 26.4099C25.9922 26.8246 25.1878 27.0831 24.3563 27.1688C23.5248 27.2545 22.6846 27.1655 21.8895 26.9076C21.0944 26.6496 20.362 26.2283 19.7392 25.6708C19.1164 25.1133 18.617 24.4317 18.273 23.6699L17.951 22.9559L16.083 24.0349C15.4388 24.407 14.9558 25.0051 14.7278 25.7132C14.4998 26.4213 14.543 27.1889 14.849 27.8669L22 43.7129L34.124 36.7129L26.718 26.4099Z" fill="#FCBC04"/>
<path d="M12.911 16.414C12.3245 16.0951 11.6676 15.928 11 15.928C9.9329 15.9625 8.8938 15.583 8.1 14.869L8.046 14.817L6 16L8 19.464C8.91872 18.9336 10.0105 18.7899 11.0352 19.0644C12.0599 19.339 12.9336 20.0093 13.464 20.928L18.664 17.928L17.615 16.111L15.871 16.735C15.383 16.8941 14.8668 16.9477 14.3565 16.8923C13.8463 16.837 13.3536 16.674 12.911 16.414Z" fill="#57B7EB"/>
<path d="M21.124 10.464C20.6647 10.7292 20.1188 10.8011 19.6064 10.6638C19.0941 10.5265 18.6573 10.1914 18.392 9.73202L18.008 9.06702L16.392 10L18.392 13.464L21.856 11.464L21.24 10.4L21.124 10.464Z" fill="#FCBC04"/>
<path d="M41 61H17L13 35H45L41 61Z" fill="#D0D8DA"/>
<path d="M48 31H10V35H48V31Z" fill="#E9F1F2"/>
<path d="M38.743 57C39.9098 56.2887 41.0011 55.4604 42 54.528L42.545 50.987C40.4114 53.7201 37.5358 55.7809 34.262 56.923C30.3747 56.5647 26.7529 54.7962 24.08 51.951C24.4515 51.8319 24.8006 51.6518 25.113 51.418C25.6723 50.9992 26.3437 50.7566 27.0415 50.721C27.7393 50.6853 28.4319 50.8584 29.031 51.218C29.2985 51.3782 29.6059 51.4594 29.9176 51.4522C30.2293 51.445 30.5325 51.3496 30.7923 51.1772C31.0521 51.0048 31.2577 50.7623 31.3855 50.4779C31.5132 50.1935 31.5577 49.8787 31.514 49.57L29.714 37H44.692L45 35H13L17 61H41L41.615 57H38.743Z" fill="#93999A"/>
<path d="M16 33C15.3814 32.9989 14.7784 32.8059 14.274 32.4477C13.7697 32.0895 13.3888 31.5837 13.184 31H10V35H48V33H16Z" fill="#D0D8DA"/>
<path d="M48 38H44.538L44.231 40H46.969C46.419 48.91 38.569 56 29 56C19.431 56 11.581 48.91 11.031 40H13.769L13.462 38H10C9.73478 38 9.48043 38.1054 9.29289 38.2929C9.10536 38.4804 9 38.7348 9 39C9 49.477 17.972 58 29 58C40.028 58 49 49.477 49 39C49 38.7348 48.8946 38.4804 48.7071 38.2929C48.5196 38.1054 48.2652 38 48 38Z" fill="#84D2F4"/>
<path d="M26.5 28.4999C26.1021 28.8976 25.5626 29.121 25 29.121C24.4374 29.121 23.8979 28.8976 23.5 28.4999V28.4999C23.1021 28.1023 22.5626 27.8789 22 27.8789C21.4374 27.8789 20.8979 28.1023 20.5 28.4999C19.5264 29.4737 18.8948 30.7368 18.7 32.0999L16 50.9999L18.973 49.2159C19.5721 48.8563 20.2647 48.6833 20.9625 48.7189C21.6603 48.7545 22.3317 48.9972 22.891 49.4159V49.4159C23.4993 49.8726 24.2394 50.1194 25 50.1194C25.7606 50.1194 26.5007 49.8726 27.109 49.4159C27.6683 48.9972 28.3397 48.7545 29.0375 48.7189C29.7353 48.6833 30.4279 48.8563 31.027 49.2159V49.2159C31.2945 49.3761 31.6019 49.4573 31.9136 49.4501C32.2253 49.4429 32.5285 49.3476 32.7883 49.1751C33.0481 49.0027 33.2537 48.7603 33.3815 48.4759C33.5092 48.1914 33.5537 47.8766 33.51 47.5679L31.3 32.0999C31.1052 30.7368 30.4736 29.4737 29.5 28.4999V28.4999C29.1021 28.1023 28.5626 27.8789 28 27.8789C27.4374 27.8789 26.8979 28.1023 26.5 28.4999V28.4999Z" fill="#84D2F4"/>
<path d="M27.728 37.6059L27.606 36.3839C27.4723 35.0322 26.9095 33.7588 26 32.7499C25.6259 32.3295 25.1011 32.0736 24.5394 32.0377C23.9778 32.0017 23.4247 32.1886 23 32.5579C22.5971 32.9412 22.0599 33.151 21.5039 33.1422C20.9479 33.1334 20.4176 32.9067 20.027 32.5109C19.6849 32.1648 19.2453 31.9314 18.767 31.8419C18.751 31.9289 18.722 32.0119 18.709 32.0999L16 50.9999L18.973 49.2159C19.5721 48.8563 20.2647 48.6833 20.9625 48.7189C21.6603 48.7545 22.3317 48.9972 22.891 49.4159C23.4993 49.8726 24.2394 50.1194 25 50.1194C25.7606 50.1194 26.5007 49.8726 27.109 49.4159C27.6683 48.9972 28.3397 48.7545 29.0375 48.7189C29.7353 48.6833 30.4279 48.8563 31.027 49.2159C31.2945 49.3761 31.6019 49.4573 31.9136 49.4501C32.2253 49.4429 32.5285 49.3475 32.7883 49.1751C33.0481 49.0027 33.2537 48.7603 33.3815 48.4758C33.5092 48.1914 33.5537 47.8766 33.51 47.5679L33.167 45.1679C31.6762 44.4961 30.3886 43.4435 29.4338 42.116C28.479 40.7886 27.8906 39.233 27.728 37.6059Z" fill="#57B7EB"/>
<path d="M23.99 35.1199L22.27 48.8799L22.24 49.0299C21.6268 48.7513 20.9457 48.6575 20.28 48.7599C20.2779 48.7196 20.2813 48.6793 20.29 48.6399L22.01 34.8799C22.0164 34.7425 22.0511 34.6078 22.1118 34.4844C22.1726 34.361 22.2582 34.2515 22.3633 34.1626C22.4683 34.0738 22.5906 34.0076 22.7224 33.9682C22.8542 33.9288 22.9927 33.917 23.1293 33.9335C23.2658 33.9501 23.3975 33.9946 23.5161 34.0644C23.6347 34.1342 23.7376 34.2277 23.8183 34.339C23.8991 34.4504 23.9561 34.5772 23.9856 34.7116C24.0152 34.8459 24.0167 34.9849 23.99 35.1199V35.1199Z" fill="#4891D3"/>
<path d="M29.84 48.6699V48.7799C29.6357 48.7401 29.4281 48.72 29.22 48.7199C28.7577 48.721 28.2997 48.8092 27.87 48.9799C27.8504 48.9288 27.8403 48.8746 27.84 48.8199L27 37.0699C26.9814 36.8047 27.069 36.5429 27.2434 36.3423C27.4178 36.1416 27.6648 36.0185 27.93 35.9999C28.1952 35.9813 28.457 36.0689 28.6576 36.2433C28.8583 36.4177 28.9814 36.6647 29 36.9299L29.84 48.6699Z" fill="#4891D3"/>
<path d="M27.606 36.384L27.728 37.606C27.8862 39.1867 28.4489 40.7 29.362 42L29 36.93C28.9787 36.6658 28.8548 36.4205 28.6548 36.2466C28.4548 36.0727 28.1946 35.9842 27.93 36C27.7997 36.0085 27.6723 36.0425 27.555 36.1C27.569 36.2 27.6 36.289 27.606 36.384Z" fill="#57B7EB"/>
</svg>
