<?xml version="1.0" encoding="UTF-8" standalone="no"?> <svg height="512pt" viewBox="0 0 512 512" width="512pt" xmlns="http://www.w3.org/2000/svg"><path d="m392 150v-60h120v-60h-30v30h-30v-30h-30v30h-108.601562l-7.199219-30h25.800781v-30h-151v30h25.800781l-7.5 30h-108.300781v-30h-30v30h-31v-30h-30v60h121v60h60v30h-90v-30h-30v30h-31v-30h-30v60h121v60h60v30l30 30h91l30-30v-30h60v-60h120v-60h-30v30h-30v-30h-30v30h-90v-30zm-211 90h-30v-30h30zm3.300781-120h-33.300781v-30h40.800781zm53.398438-90h37.601562l7.5 30h-52.601562zm-15 60h67.601562l7.5 30h-82.601562zm79.300781 150h-91v-30h91zm0-60h-91v-30h91zm60 30v30h-30v-30zm-33.601562-90-7.5-30h41.101562v30zm0 0" fill="#c4d9f2"/><path d="m392 150v-60h120v-60h-30v30h-30v-30h-30v30h-108.601562l-7.199219-30h25.800781v-30h-76v30h19.300781l7.5 30h-26.800781v30h34.300781l7.5 30h-41.800781v30h46v30h-46v30h46v30h-46v90h46l30-30v-30h60v-60h120v-60h-30v30h-30v-30h-30v30h-90v-30zm-30 60v30h-30v-30zm-33.601562-90-7.5-30h41.101562v30zm0 0" fill="#a9c3ea"/><path d="m422 390-45 30-45-30h-151l-45 30-45-30 90-90h151zm0 0" fill="#766e6e"/><path d="m332 390h-76v-90h76l90 90-45 30zm0 0" fill="#5b5555"/><path d="m91 390h90v107h-90zm0 0" fill="#5b5555"/><path d="m332 390h90v107h-90zm0 0" fill="#463f3f"/><path d="m0 482h512v30h-512zm0 0" fill="#daf569"/><path d="m256 482h256v30h-256zm0 0" fill="#b9df47"/></svg>