<?xml version="1.0" encoding="UTF-8" standalone="no"?> <svg width="64" height="64" viewBox="0 0 64 64" fill="none" xmlns="http://www.w3.org/2000/svg">
<path d="M16.5918 17.527L9.52078 24.5981C8.73973 25.3792 8.73973 26.6455 9.52078 27.4265C10.3018 28.2076 11.5682 28.2076 12.3492 27.4265L19.4203 20.3555C20.2013 19.5744 20.2013 18.3081 19.4203 17.527C18.6392 16.746 17.3729 16.746 16.5918 17.527Z" fill="#AAE1F9"/>
<path d="M13.77 26.01L38.52 50.76L47 55L42.76 46.52L18.01 21.77L13.77 26.01Z" fill="#AAE1F9"/>
<path d="M45.67 52.33C43.5725 51.2929 41.6575 49.9217 40 48.27L36.52 44.78C35.9582 44.2175 35.6427 43.455 35.6427 42.66C35.6427 41.865 35.9582 41.1025 36.52 40.54L36.64 40.41L29.57 33.34L27.32 35.59L21.32 29.54C20.6204 28.8254 20.1512 27.9175 19.9729 26.9335C19.7947 25.9495 19.9156 24.9346 20.32 24.02L18 21.77L13.77 26L38.51 50.76L47 55L45.67 52.33Z" fill="#57B7EB"/>
<path d="M49.9171 21.1441L42.846 14.073L2.99347 53.9255L10.0645 60.9966L49.9171 21.1441Z" fill="#F9E109"/>
<path d="M42.86 14.0699L34.86 22.0699L36.27 23.4799C36.6419 23.8514 36.9369 24.2926 37.1382 24.7782C37.3395 25.2638 37.4431 25.7843 37.4431 26.3099C37.4431 26.8356 37.3395 27.3561 37.1382 27.8417C36.9369 28.3273 36.6419 28.7685 36.27 29.1399L15.73 49.6899C15.1728 50.2478 14.511 50.6904 13.7826 50.9923C13.0543 51.2943 12.2735 51.4497 11.485 51.4497C10.6965 51.4497 9.91575 51.2943 9.18736 50.9923C8.45897 50.6904 7.79724 50.2478 7.24 49.6899L3 53.9299L10.07 60.9999L49.93 21.1399L42.86 14.0699Z" fill="#FCBC04"/>
<path d="M49.69 31.99L28.47 10.78L36.25 3L49.69 9.36L61 20.68L49.69 31.99Z" fill="#57B7EB"/>
<path d="M55.59 15.26C52.5457 16.9934 49.0166 17.6797 45.5446 17.2136C42.0725 16.7476 38.8494 15.1549 36.37 12.68L31.47 7.78003L28.47 10.78L49.69 32L61 20.68L55.59 15.26Z" fill="#4891D3"/>
<path d="M61.71 20L50.39 8.65997C50.3089 8.57763 50.2142 8.50996 50.11 8.45997L36.68 2.09997C36.4937 2.00975 36.284 1.97957 36.0798 2.01361C35.8756 2.04764 35.687 2.1442 35.54 2.28997L27.77 10.07C27.6755 10.1626 27.6003 10.273 27.5488 10.3949C27.4973 10.5168 27.4705 10.6477 27.47 10.78C27.4705 10.9123 27.4973 11.0432 27.5488 11.165C27.6003 11.2869 27.6755 11.3974 27.77 11.49L43 26.69L10.1 59.59L4.41 53.93L35.19 23.15C35.3538 22.9587 35.4394 22.7126 35.4297 22.4609C35.42 22.2092 35.3157 21.9705 35.1376 21.7924C34.9595 21.6143 34.7207 21.51 34.4691 21.5003C34.2174 21.4905 33.9713 21.5761 33.78 21.74L2.29 53.22C2.19627 53.3129 2.12188 53.4235 2.07111 53.5454C2.02034 53.6673 1.9942 53.798 1.9942 53.93C1.9942 54.062 2.02034 54.1927 2.07111 54.3145C2.12188 54.4364 2.19627 54.547 2.29 54.64L9.36 61.71C9.55163 61.8927 9.80523 61.9963 10.07 62C10.2016 62.0007 10.3321 61.9755 10.4539 61.9257C10.5757 61.876 10.6866 61.8026 10.78 61.71L44.38 28.1L49 32.7C49.1874 32.8862 49.4408 32.9908 49.705 32.9908C49.9692 32.9908 50.2226 32.8862 50.41 32.7L61.71 21.38C61.8873 21.194 61.9862 20.9469 61.9862 20.69C61.9862 20.433 61.8873 20.1859 61.71 20ZM49.71 30.61L29.91 10.81L36.48 4.23997L49.12 10.24L59.59 20.68L49.71 30.61Z" fill="#39519D"/>
<path d="M10.94 28.9999C11.7354 28.9992 12.4979 28.6827 13.06 28.1199L13.77 27.4099L18.77 32.4099C18.9574 32.5962 19.2108 32.7007 19.475 32.7007C19.7392 32.7007 19.9926 32.5962 20.18 32.4099C20.3662 32.2226 20.4708 31.9691 20.4708 31.7049C20.4708 31.4407 20.3662 31.1873 20.18 30.9999L15.18 25.9999L18 23.1799L23 28.1799C23.0934 28.2726 23.2042 28.3459 23.3261 28.3957C23.4479 28.4455 23.5784 28.4707 23.71 28.4699C23.9723 28.4688 24.2237 28.3647 24.41 28.1799C24.5962 27.9926 24.7008 27.7391 24.7008 27.4749C24.7008 27.2107 24.5962 26.9573 24.41 26.7699L19.41 21.7699L20.12 21.0599C20.6818 20.4974 20.9974 19.7349 20.9974 18.9399C20.9974 18.1449 20.6818 17.3824 20.12 16.8199C19.5501 16.2724 18.7903 15.9666 18 15.9666C17.2096 15.9666 16.4499 16.2724 15.88 16.8199L8.81999 23.8899C8.40437 24.31 8.12206 24.8434 8.00848 25.4233C7.8949 26.0032 7.95511 26.6038 8.18155 27.1496C8.408 27.6954 8.79059 28.1622 9.28132 28.4913C9.77206 28.8205 10.3491 28.9975 10.94 28.9999ZM10.23 25.2899L17.3 18.2199C17.4399 18.0789 17.6186 17.9827 17.8133 17.9436C18.0081 17.9046 18.21 17.9244 18.3935 18.0006C18.5769 18.0767 18.7335 18.2058 18.8433 18.3713C18.9531 18.5368 19.0111 18.7313 19.01 18.9299C19.0089 19.1923 18.9047 19.4437 18.72 19.6299V19.6299L11.64 26.7099C11.4526 26.8962 11.1992 27.0007 10.935 27.0007C10.6708 27.0007 10.4174 26.8962 10.23 26.7099C10.0437 26.5226 9.9392 26.2691 9.9392 26.0049C9.9392 25.7407 10.0437 25.4873 10.23 25.2999V25.2899Z" fill="#39519D"/>
<path d="M43.65 46.07C43.6043 45.9717 43.5397 45.8834 43.46 45.81L37.19 39.54C37.0941 39.4474 36.981 39.3746 36.857 39.3258C36.733 39.2769 36.6006 39.253 36.4673 39.2553C36.3341 39.2576 36.2026 39.2861 36.0804 39.3393C35.9581 39.3924 35.8476 39.4691 35.755 39.565C35.6624 39.6608 35.5896 39.774 35.5408 39.898C35.4919 40.022 35.468 40.1544 35.4703 40.2877C35.4726 40.4209 35.5012 40.5524 35.5543 40.6746C35.6074 40.7968 35.6841 40.9074 35.78 41L41.94 47.16L44.76 52.81L39.11 49.99L33 43.78C32.8087 43.6162 32.5626 43.5305 32.311 43.5403C32.0593 43.55 31.8205 43.6543 31.6424 43.8324C31.4643 44.0105 31.36 44.2492 31.3503 44.5009C31.3406 44.7526 31.4262 44.9987 31.59 45.19L37.86 51.46C37.9334 51.5397 38.0218 51.6042 38.12 51.65L46.6 55.89C46.7234 55.9563 46.8601 55.9939 47 56C47.1316 56.0007 47.2621 55.9755 47.3839 55.9257C47.5058 55.876 47.6166 55.8027 47.71 55.71C47.8585 55.5603 47.9558 55.3675 47.9881 55.1592C48.0204 54.9508 47.9861 54.7376 47.89 54.55L43.65 46.07Z" fill="#39519D"/>
</svg>
